<svg xmlns="http://www.w3.org/2000/svg" viewBox="0 0 32 32" fill="none">
  <rect width="32" height="32" rx="6" fill="#3b82f6"/>
  <path d="M16 8C13.5 8 11.5 9.5 10.5 11.5C9.5 13.5 9 16 9 18C9 20 9.5 21.5 10.5 22.5C11.5 23.5 13 24 15 24C16 24 17 23.5 17.5 23C18 22.5 18.5 21.5 19 20.5C19.5 19.5 20 18 20.5 16.5C21 15 21.5 13.5 22 12.5C22.5 11.5 23 11 23.5 11C24 11 24 11.5 24 12C24 12.5 23.5 13.5 23 14.5C22.5 15.5 22 16.5 21.5 17.5C21 18.5 20.5 19.5 20 20C19.5 20.5 19 21 18.5 21C18 21 17.5 20.5 17 20C16.5 19.5 16 19 15.5 18C15 17 14.5 16 14.5 15C14.5 14 15 13 15.5 12.5C16 12 16.5 11.5 17 11.5C17.5 11.5 18 12 18 12.5C18 13 17.5 13.5 17 14C16.5 14.5 16 15 16 15.5" stroke="white" stroke-width="1.5" stroke-linecap="round" stroke-linejoin="round" fill="none"/>
  <circle cx="12" cy="14" r="1.5" fill="white"/>
  <circle cx="20" cy="14" r="1.5" fill="white"/>
</svg>
